<svg xmlns="http://www.w3.org/2000/svg" data-name="Layer 1" width="860.24803" height="688" viewBox="0 0 860.24803 688" xmlns:xlink="http://www.w3.org/1999/xlink">
    <path d="M386.98267,492H174.876a5.00581,5.00581,0,0,1-5-5V233a5.00581,5.00581,0,0,1,5-5H386.98267a5.00573,5.00573,0,0,1,5,5V487A5.00573,5.00573,0,0,1,386.98267,492ZM174.876,230a3.00336,3.00336,0,0,0-3,3V487a3.00336,3.00336,0,0,0,3,3H386.98267a3.00328,3.00328,0,0,0,3-3V233a3.00328,3.00328,0,0,0-3-3Z" transform="translate(-169.87598 -106)" fill="#cacaca"/>
    <rect x="33.55334" y="176" width="155" height="96" fill="#1919c5"/>
    <rect x="33.55334" y="308" width="39" height="24" fill="#e4e4e4"/>
    <rect x="149.55334" y="308" width="39" height="24" fill="#e4e4e4"/>
    <rect x="91.55334" y="308" width="39" height="24" fill="#e4e4e4"/>
    <path d="M678.98267,370H466.876a5.00573,5.00573,0,0,1-5-5V111a5.00573,5.00573,0,0,1,5-5H678.98267a5.00573,5.00573,0,0,1,5,5V365A5.00573,5.00573,0,0,1,678.98267,370ZM466.876,108a3.00328,3.00328,0,0,0-3,3V365a3.00328,3.00328,0,0,0,3,3H678.98267a3.00328,3.00328,0,0,0,3-3V111a3.00328,3.00328,0,0,0-3-3Z" transform="translate(-169.87598 -106)" fill="#cacaca"/>
    <path d="M681.51612,531H469.40968a5.00573,5.00573,0,0,1-5-5V451a5.00573,5.00573,0,0,1,5-5H681.51612a5.00573,5.00573,0,0,1,5,5v75A5.00573,5.00573,0,0,1,681.51612,531ZM469.40968,448a3.00328,3.00328,0,0,0-3,3v75a3.00328,3.00328,0,0,0,3,3H681.51612a3.00328,3.00328,0,0,0,3-3V451a3.00328,3.00328,0,0,0-3-3Z" transform="translate(-169.87598 -106)" fill="#cacaca"/>
    <rect x="326.05334" y="170.5" width="154" height="24" rx="11.99999" fill="#e4e4e4"/>
    <rect x="326.05334" y="208.5" width="154" height="24" rx="11.99999" fill="#e4e4e4"/>
    <circle cx="403.05334" cy="87.5" r="56" fill="#1919c5"/><rect x="397.08691" y="370.5" width="81" height="24" rx="11.99999" fill="#e4e4e4"/>
    <circle cx="355.08691" cy="382.5" r="22" fill="#1919c5"/>
</svg>